<svg width="25" height="21" viewBox="0 0 25 21" fill="none" xmlns="http://www.w3.org/2000/svg">
<path d="M22.468 0.899994H3.26801C2.63357 0.903166 2.0262 1.15742 1.57871 1.60717C1.13121 2.05691 0.880004 2.66555 0.880012 3.29999L0.868011 17.7C0.869858 18.3359 1.12331 18.9453 1.573 19.395C2.02268 19.8447 2.63206 20.0981 3.26801 20.1H22.468C23.104 20.0981 23.7133 19.8447 24.163 19.395C24.6127 18.9453 24.8662 18.3359 24.868 17.7V3.29999C24.8662 2.66404 24.6127 2.05467 24.163 1.60498C23.7133 1.15529 23.104 0.901841 22.468 0.899994ZM22.468 5.69999L12.868 11.7L3.26801 5.69999V3.29999L12.868 9.29999L22.468 3.29999V5.69999Z" fill="#B7B7B7"/>
</svg>
