<svg width="20" height="23" viewBox="0 0 20 23" fill="none" xmlns="http://www.w3.org/2000/svg">
<path d="M17.518 10.236H16.475V7.107C16.475 5.35471 15.7789 3.6742 14.5398 2.43515C13.3008 1.19609 11.6203 0.5 9.86799 0.5C8.1157 0.5 6.43519 1.19609 5.19613 2.43515C3.95708 3.6742 3.26099 5.35471 3.26099 7.107V10.237H2.21799C1.66483 10.2373 1.1344 10.4571 0.743256 10.8483C0.352113 11.2394 0.132254 11.7698 0.131989 12.323L0.131989 20.668C0.132254 21.2212 0.352113 21.7516 0.743256 22.1427C1.1344 22.5339 1.66483 22.7537 2.21799 22.754H17.518C18.0711 22.7537 18.6016 22.5339 18.9927 22.1427C19.3839 21.7516 19.6037 21.2212 19.604 20.668V12.323C19.604 11.7697 19.3842 11.239 18.9931 10.8476C18.6019 10.4563 18.0713 10.2363 17.518 10.236ZM12.998 10.236H6.73899V7.107C6.73156 6.69132 6.80701 6.27833 6.96095 5.89213C7.11488 5.50593 7.34422 5.15427 7.63555 4.85768C7.92689 4.56109 8.2744 4.32551 8.65778 4.16469C9.04116 4.00388 9.45274 3.92106 9.86849 3.92106C10.2842 3.92106 10.6958 4.00388 11.0792 4.16469C11.4626 4.32551 11.8101 4.56109 12.1014 4.85768C12.3928 5.15427 12.6221 5.50593 12.776 5.89213C12.93 6.27833 13.0054 6.69132 12.998 7.107V10.236Z" fill="#B7B7B7"/>
</svg>
